<?xml version="1.0" encoding="utf-8"?><!DOCTYPE svg PUBLIC "-//W3C//DTD SVG 1.1//EN" "http://www.w3.org/Graphics/SVG/1.1/DTD/svg11.dtd"><svg version="1.1" id="Contours" xmlns="http://www.w3.org/2000/svg" xmlns:xlink="http://www.w3.org/1999/xlink" x="0px" y="0px" width="1641.300049px" height="1641.300049px" viewBox="-0.000000 0.000007 1641.300049 1657.061523" enable-background="new 0 0 1641.300049 1641.300049" xml:space="preserve" stroke="black" fill="none" stroke-linecap='round' stroke-linejoin='round'><path class="selected"  fill="#000000" opacity="1.000000" stroke="none" 
 	d="
M1641.176148 1112.012765 C1640.842774 1120.822335 1640.317261 1129.130197 1640.246338 1137.441964 C1640.201904 1142.633859 1641.108521 1147.831979 1641.103027 1153.026803 C1641.097290 1158.446237 1640.185303 1163.867746 1640.232300 1169.283517 C1640.433838 1192.536691 1640.849732 1215.788156 1641.168945 1239.040475 C1641.220093 1242.763497 1641.221558 1246.488595 1641.168701 1250.211618 C1640.850342 1272.630685 1640.481445 1295.048898 1640.223511 1317.468576 C1640.200195 1319.493112 1641.099487 1321.521310 1641.130249 1323.554513 C1641.245117 1331.109811 1641.282593 1338.669747 1641.153687 1346.224679 C1640.896240 1361.311471 1640.319336 1376.395211 1640.246216 1391.482125 C1640.201050 1400.789743 1641.118774 1410.101266 1641.103272 1419.410104 C1641.085449 1429.996286 1640.195679 1440.582955 1640.244995 1451.166818 C1640.332398 1469.920236 1641.371338 1488.683663 1640.940674 1507.418283 C1640.742188 1516.053414 1640.984009 1525.376901 1635.140015 1532.910104 C1632.063233 1536.876412 1628.773560 1540.707223 1625.299805 1544.330514 C1613.947876 1556.171456 1602.420166 1567.843820 1591.046997 1579.664498 C1576.503540 1594.780465 1562.103882 1610.035104 1547.525147 1625.116647 C1539.785034 1633.123483 1532.419556 1641.692941 1523.688599 1648.466012 C1518.461182 1652.521188 1511.051270 1655.153390 1504.397949 1655.701730 C1488.615967 1657.002023 1472.700195 1656.968942 1456.838501 1656.970651 C980.845215 1657.022287 504.851990 1657.001779 28.858765 1657.061471 C13.236664 1657.063424 4.586563 1648.877877 1.240341 1634.686959 C0.471787 1631.427682 0.218720 1627.978463 0.217819 1624.616403 C0.170578 1448.952218 0.259644 1273.287912 0.000061 1097.624093 C-0.018478 1085.074411 4.180649 1075.292306 12.826614 1066.865426 C25.528336 1054.485177 38.230637 1042.105538 50.950592 1029.744088 C61.758392 1019.241037 72.595825 1008.768502 83.412415 998.274362 C94.946564 987.083932 106.463654 975.875924 118.003021 964.690744 C128.106384 954.897531 138.243622 945.139108 148.341614 935.340280 C160.592285 923.452462 172.800690 911.521066 185.059143 899.641305 C193.966797 891.008615 202.949951 882.454049 211.856751 873.820626 C224.233551 861.823434 236.561798 849.776315 248.927002 837.767221 C259.618591 827.383615 270.336151 817.026742 281.035706 806.651254 C292.333374 795.695809 303.619934 784.728829 314.917542 773.773263 C325.617127 763.397836 336.328369 753.034494 347.027893 742.659005 C358.325562 731.703500 369.614197 720.738656 380.909241 709.780404 C391.965088 699.054269 402.998657 688.304940 414.092224 677.617929 C419.905457 672.017709 425.946716 666.650338 431.667969 660.959603 C438.759827 653.905648 436.688355 651.987252 431.828064 647.138803 C408.347351 623.715463 384.852722 600.305551 361.472107 576.782540 C322.436157 537.509042 283.471954 498.164071 244.515106 458.811959 C241.182648 455.445748 237.453003 452.190683 235.145966 448.173104 C232.971893 444.386911 231.355682 439.665658 231.338623 435.348397 C231.099213 374.850228 231.221710 314.350747 231.131287 253.851724 C231.116211 243.765634 230.385010 233.682168 230.239472 223.593820 C230.183838 219.737558 231.128571 215.871347 231.133087 212.009072 C231.196503 157.843270 231.097656 103.677194 231.212708 49.511514 C231.262421 26.114282 246.142914 8.154580 267.485230 1.304757 C270.472962 0.345834 273.790955 0.071084 276.957153 0.065194 C319.123047 -0.013297 361.289246 -0.026816 403.455200 0.057260 C409.484314 0.069284 415.511963 0.932031 421.540894 0.939645 C427.235596 0.946832 432.934326 0.020669 438.625733 0.076379 C453.213135 0.219140 467.796448 0.738763 482.383484 0.988870 C490.219299 1.123223 498.059265 1.012765 505.897400 1.012765 C509.287903 1.012765 512.678345 1.012765 516.068848 1.012765 C762.122498 1.012765 1008.176148 1.008935 1254.229858 1.034219 C1260.549561 1.034875 1267.089844 0.370858 1273.143189 1.729013 C1285.988648 4.611093 1292.376099 14.355966 1294.996826 26.441644 C1296.078735 31.430810 1295.046997 36.854364 1295.210327 42.073037 C1295.395752 47.996698 1296.139649 53.913934 1296.104614 59.830773 C1296.055542 68.084787 1295.485596 76.335000 1295.190430 84.588693 C1295.099121 87.142587 1295.080444 89.706796 1295.195313 92.258798 C1295.469483 98.347146 1296.118897 104.431741 1296.103272 110.516549 C1296.085571 117.436349 1295.198120 124.356912 1295.245728 131.273294 C1295.326416 143.027322 1296.032471 154.776712 1296.132813 166.530984 C1296.294067 185.419870 1296.306152 204.312265 1296.139404 223.201028 C1295.973755 241.954721 1295.475586 260.705270 1295.224609 279.458566 C1295.197510 281.482308 1296.113770 283.512735 1296.131104 285.544015 C1296.225586 296.657418 1296.176148 307.772042 1296.176148 318.886270 C1296.176148 328.276651 1296.176148 337.667062 1296.176148 347.057443 C1296.176148 360.671640 1296.295532 374.287484 1296.098755 387.898873 C1296.044190 391.673104 1295.709839 395.689218 1294.366333 399.153268 C1290.134888 410.063668 1278.647461 413.353280 1267.606934 409.289621 C1256.778809 405.304208 1251.128784 396.514291 1244.174194 388.711740 C1243.410156 387.854623 1242.627930 387.013253 1241.839478 386.178537 C1230.410156 374.078622 1218.931763 362.024423 1207.563721 349.867135 C1200.518799 342.333200 1193.639649 334.644235 1186.687500 327.023538 C1183.485108 323.513009 1179.666992 321.943093 1174.763062 321.944985 C970.265991 322.024057 765.768860 322.015603 561.271790 321.986459 C558.071106 321.986001 554.436829 321.712991 554.115357 325.789224 C553.931763 328.116250 555.135376 331.206552 556.789124 332.909433 C563.316528 339.630624 570.407654 345.800180 577.041687 352.422738 C625.047730 400.346139 672.928467 448.395089 720.976013 496.276681 C770.607544 545.736642 820.384522 595.050607 870.091309 644.435006 C873.889771 648.208810 878.067871 650.159433 883.783203 650.138436 C940.281616 649.930734 996.781128 650.045968 1053.280274 649.968759 C1059.975830 649.959603 1066.678833 649.460580 1073.363648 648.982614 C1081.014771 648.435617 1087.369507 651.249704 1092.863403 656.237252 C1101.610230 664.177865 1110.355957 672.126107 1118.888550 680.294320 C1126.571045 687.648873 1133.854126 695.420053 1141.513794 702.799447 C1154.700073 715.503121 1168.028198 728.059701 1181.322632 740.650766 C1193.165405 751.867013 1205.057373 763.031503 1216.901733 774.246102 C1230.077026 786.720651 1243.202271 799.247995 1256.387940 811.711557 C1267.394409 822.115121 1278.467651 832.447946 1289.489746 842.834909 C1296.091919 849.056710 1302.686401 855.287423 1309.223999 861.576730 C1318.951416 870.935006 1315.622803 876.980905 1309.734009 883.819162 C1298.554443 896.800851 1286.895508 909.368234 1275.526001 922.187814 C1263.328858 935.940866 1251.317993 949.859933 1239.053589 963.552438 C1234.631470 968.489450 1229.957886 973.266793 1224.943848 977.588937 C1220.275391 981.613107 1214.354981 982.998361 1208.228149 982.998849 C966.398316 983.015206 724.568359 983.024240 482.738464 982.936837 C477.490295 982.935006 472.624024 984.364816 469.258972 987.700753 C459.219910 997.652291 449.797913 1008.226266 440.130676 1018.553170 C439.561462 1019.161203 438.944641 1019.724435 438.366943 1020.324899 C429.997437 1029.023385 421.575195 1037.672067 413.278198 1046.439157 C403.669617 1056.592233 394.160706 1066.839669 384.629395 1077.065744 C375.893128 1086.438912 367.198303 1095.850656 358.459778 1105.221749 C348.812561 1115.567330 339.172791 1125.920358 329.456665 1136.201120 C324.875366 1141.048776 321.661682 1146.696481 321.297608 1153.286080 C320.807983 1162.149362 321.300659 1171.062448 321.145874 1179.950143 C320.933533 1192.147287 320.538696 1204.341622 320.166626 1216.535592 C319.880920 1225.898873 319.509399 1235.259469 319.176087 1244.621286 C318.842774 1253.983102 318.326416 1263.342965 318.229920 1272.707223 C318.141480 1281.289498 323.244019 1288.056588 331.223816 1290.512155 C332.579041 1290.929147 334.084045 1290.989205 335.520386 1290.992379 C350.353455 1291.025460 365.186585 1291.012765 380.019714 1291.012765 C388.076782 1291.012765 396.136353 1290.889352 404.190064 1291.054635 C409.889710 1291.171579 415.581299 1291.939645 421.276489 1291.939645 C426.971680 1291.939645 432.669983 1291.020944 438.361389 1291.076608 C452.615540 1291.216378 466.865295 1291.839303 481.119263 1291.945382 C488.259277 1291.998605 495.401978 1291.238473 502.548767 1291.073800 C504.901733 1291.019601 507.271118 1291.971017 509.633057 1291.971383 C767.019898 1292.015451 1024.406738 1292.038400 1281.793579 1291.909371 C1291.089844 1291.904733 1299.586792 1289.567086 1306.817261 1282.185983 C1323.004150 1265.661691 1340.046875 1249.975412 1356.740845 1233.947824 C1365.088013 1225.934030 1373.436768 1217.922189 1381.781616 1209.906076 C1390.366699 1201.659005 1398.945679 1193.405465 1407.531128 1185.158761 C1424.341431 1169.011666 1441.151489 1152.864205 1457.968262 1136.723580 C1465.835571 1129.172555 1473.722778 1121.642160 1481.592896 1114.093942 C1498.054566 1098.305612 1514.510864 1082.511544 1530.969360 1066.719796 C1539.198608 1058.823922 1547.431519 1050.931832 1555.656006 1043.030954 C1564.361084 1034.668161 1572.986694 1026.221261 1581.780518 1017.953073 C1589.295166 1010.887887 1596.720459 1003.682443 1604.705078 997.177194 C1611.227539 991.862985 1619.484741 991.170236 1627.505249 992.156564 C1633.835083 992.935128 1640.852051 1001.944039 1641.100342 1009.012643 C1641.414185 1017.949166 1641.304199 1026.907540 1641.136353 1035.851876 C1640.997070 1043.274606 1640.214966 1050.691964 1640.247925 1058.109323 C1640.292847 1068.196359 1641.008057 1078.279367 1641.108276 1088.367379 C1641.160400 1093.615792 1640.359131 1098.868112 1640.242432 1104.125192 C1640.187866 1106.579537 1640.842774 1109.049752 1641.176148 1112.012765 M990.676148 1303.012765 C739.572876 1303.012765 488.469605 1302.968087 237.366425 1303.124948 C222.465698 1303.134347 217.451569 1295.506906 217.366211 1282.636911 C216.947327 1219.473092 217.172119 1156.305001 217.201935 1093.138497 C217.202606 1091.723703 217.511810 1090.293161 217.806885 1088.897287 C219.569550 1080.558419 224.771118 1074.602365 230.724060 1068.780709 C243.163208 1056.615914 255.067261 1043.905343 267.237183 1031.463815 C284.301483 1014.018624 301.399353 996.606149 318.498352 979.194894 C337.816223 959.524484 357.102539 939.822824 376.494568 920.225778 C391.382385 905.180246 406.311096 890.171334 421.471191 875.402536 C424.297485 872.649118 428.073364 870.426828 431.816895 869.143746 C442.187073 865.589669 452.792847 864.146310 463.971680 864.772531 C476.608643 865.480661 489.347534 864.162789 502.044373 864.082223 C509.518311 864.034738 516.996033 864.955026 524.472900 864.968087 C573.863220 865.054391 623.253662 865.012765 672.644104 865.012765 C874.477051 865.012765 1076.309937 865.012765 1278.142822 865.012765 C1279.476196 865.012765 1281.014649 865.441354 1282.099487 864.922189 C1284.257080 863.889474 1287.180420 862.713082 1287.863281 860.879464 C1288.437256 859.337960 1286.795654 856.249948 1285.253418 854.757516 C1274.371094 844.226388 1263.242798 833.949655 1252.227783 823.554818 C1239.637817 811.673471 1227.088745 799.748788 1214.512940 787.852426 C1202.421265 776.414010 1190.312866 764.993234 1178.221069 753.554879 C1165.645264 741.658517 1153.009644 729.824044 1140.536987 717.820382 C1132.873413 710.444955 1125.466431 702.803109 1117.944214 695.280892 C1110.283936 687.620553 1102.597412 679.986154 1094.970703 672.292489 C1087.430420 664.685922 1078.835083 660.728280 1067.636963 660.838449 C1024.141235 661.266427 980.638428 661.110055 937.139038 660.967233 C918.442993 660.905892 899.731934 660.698495 881.061890 659.826364 C874.302612 659.510568 867.388916 657.667245 862.168213 652.497689 C826.826294 617.502938 791.437805 582.554879 756.171204 547.484323 C682.260132 473.984384 608.395325 400.437997 534.552063 326.869821 C503.992066 296.423715 473.536377 265.872933 443.033203 235.369760 C442.208252 234.544808 441.383240 233.719888 440.558289 232.894967 C435.884705 228.221353 431.089722 223.661172 426.580322 218.834207 C423.582825 215.625619 424.951050 211.734597 429.223206 211.062844 C432.880432 210.487741 436.609680 210.023477 440.300415 210.067697 C457.887634 210.278421 475.471558 210.783090 493.058899 210.952279 C498.640930 211.005990 504.233093 210.019723 509.815003 210.074716 C525.792969 210.232095 541.767334 210.905954 557.744629 210.967233 C594.967896 211.110025 632.192017 211.012765 669.415833 211.012765 C805.582214 211.012765 941.748535 211.020272 1077.914917 210.998086 C1088.460571 210.996377 1097.519775 214.370126 1104.807007 222.140054 C1110.101196 227.785073 1115.443970 233.385018 1120.708496 239.057626 C1133.103149 252.413186 1145.491211 265.774911 1157.829712 279.182321 C1168.476563 290.751748 1178.993164 302.441445 1189.674316 313.978982 C1199.849976 324.970346 1210.140869 335.855477 1220.424805 346.745858 C1227.454224 354.189645 1234.641480 361.485726 1241.602051 368.992501 C1246.577393 374.358102 1251.082031 380.171273 1256.197754 385.391488 C1259.790527 389.057687 1263.586304 393.185739 1268.136108 395.097726 C1274.927124 397.951669 1283.767334 396.424203 1284.151123 386.210763 C1284.303467 382.159249 1284.176148 378.097360 1284.176148 374.040170 C1284.176148 351.316354 1284.176148 328.592538 1284.176148 305.868722 C1284.176148 219.035562 1284.196533 132.202432 1284.133057 45.369302 C1284.128540 39.173806 1283.860962 32.934655 1283.090454 26.794259 C1282.035156 18.383981 1276.669190 11.836984 1266.467651 11.843423 C939.968506 12.049249 613.469116 12.029061 286.969849 11.931710 C277.481384 11.928887 268.762146 13.709024 260.818634 18.885125 C250.316925 25.728219 243.305512 34.786904 243.201477 47.899346 C243.089478 62.012811 243.286652 76.129068 243.131683 90.241708 C243.048340 97.830239 242.241242 105.414010 242.249268 112.999429 C242.257843 121.085549 243.081940 129.169625 243.130280 137.257089 C243.263153 159.480111 243.176148 181.704446 243.176148 203.928262 C243.176148 209.652108 242.971710 215.384896 243.222290 221.097756 C243.636383 230.538308 246.618988 238.988107 253.481659 245.836373 C276.230621 268.537362 298.977081 291.241098 321.642700 314.025186 C328.136536 320.552926 334.237000 327.471414 340.715759 334.014718 C381.650147 375.356637 422.637329 416.646310 463.612671 457.947702 C506.388977 501.064462 549.167053 544.179452 591.955566 587.284005 C599.802307 595.188668 607.703064 603.039682 615.578858 610.915475 C627.481812 622.818429 639.396851 634.709298 651.267639 646.644174 C652.380371 647.762948 653.033020 649.369638 654.213257 650.384652 C656.758240 652.573129 656.915833 655.352609 655.653442 657.873544 C654.321472 660.533151 651.670044 661.102731 648.539185 661.097177 C584.872803 660.984567 521.205750 660.910592 457.540649 661.215341 C452.681213 661.238595 446.809448 662.912545 443.181519 665.942453 C433.429627 674.087106 424.622070 683.365365 415.471436 692.226388 C403.806702 703.521798 392.178955 714.855355 380.524292 726.161141 C369.946106 736.422677 359.317017 746.631906 348.775024 756.930368 C331.676392 773.633920 314.656128 790.417794 297.546204 807.109811 C292.603821 811.931466 287.421326 816.506051 282.428925 821.277475 C266.300842 836.691964 250.175537 852.109689 234.122406 867.601998 C227.907684 873.599557 221.945343 879.857736 215.768433 885.895333 C204.991119 896.429757 194.138886 906.887765 183.314148 917.373727 C172.848480 927.511788 162.370453 937.637155 151.911102 947.781808 C140.255615 959.086740 128.620422 970.412423 116.966553 981.719186 C106.269623 992.097482 95.511597 1002.413522 84.865845 1012.843942 C64.815552 1032.488595 44.826798 1052.195748 24.812042 1071.876657 C23.746918 1072.923898 22.551697 1073.867868 21.635330 1075.031808 C19.087311 1078.267770 15.562286 1081.243966 14.373657 1084.948678 C10.219589 1097.896066 11.301773 1111.450997 11.242615 1124.814401 C11.208771 1132.455758 12.069748 1140.099191 12.103775 1147.743478 C12.130615 1153.770455 11.374008 1159.797189 11.240784 1165.830270 C11.185150 1168.350167 12.169266 1170.892892 12.116226 1173.413400 C11.942474 1181.669137 11.257660 1189.919137 11.249268 1198.171945 C11.241379 1205.924020 11.927521 1213.674630 12.118485 1221.430612 C12.168213 1223.449655 11.183426 1225.494699 11.234955 1227.513497 C11.417389 1234.660226 12.113297 1241.801217 12.103088 1248.943673 C12.091995 1256.696603 11.188919 1264.450875 11.242935 1272.200631 C11.355072 1288.288034 12.028092 1304.371408 12.133240 1320.458688 C12.295899 1345.348214 12.201187 1370.239450 12.132706 1395.129708 C12.126663 1397.325875 11.188675 1399.526315 11.229675 1401.714669 C11.449768 1413.469186 11.860275 1425.219918 12.164261 1436.973214 C12.243271 1440.028390 12.081421 1443.090646 12.191773 1446.143869 C12.826325 1463.702218 13.794357 1481.254464 14.055039 1498.817697 C14.183884 1507.497384 21.919785 1515.120919 30.544388 1515.101876 C101.991608 1514.944528 173.439301 1515.012765 244.886871 1515.012765 C253.444061 1515.012765 262.003418 1514.895822 270.557587 1515.056344 C275.757263 1515.153756 280.946228 1515.905954 286.144684 1515.967111 C298.257355 1516.109933 310.372864 1516.012765 322.487244 1516.012765 C726.986389 1516.012765 1131.485596 1516.030954 1535.984741 1515.969918 C1561.679932 1515.966012 1587.375366 1515.361154 1613.070191 1515.002023 C1619.377441 1514.913888 1624.956665 1511.925363 1626.070313 1507.285592 C1627.505982 1501.304269 1629.043091 1495.140329 1629.049439 1489.053537 C1629.210327 1334.720651 1629.167603 1180.387643 1629.218140 1026.054635 C1629.219605 1021.525949 1630.056885 1016.998361 1630.075073 1012.468576 C1630.082764 1010.552682 1629.430054 1008.294137 1628.295654 1006.775216 C1624.295532 1001.418649 1616.380737 1001.809152 1610.249512 1007.447335 C1601.553345 1015.444284 1592.779541 1023.360665 1584.226196 1031.508004 C1566.986206 1047.929269 1549.876709 1064.487252 1532.704834 1080.980050 C1524.839966 1088.533883 1516.946655 1096.058297 1509.080933 1103.611276 C1492.027466 1119.986764 1474.986450 1136.375192 1457.933960 1152.751779 C1449.948608 1160.420602 1441.944458 1168.070138 1433.955689 1175.735421 C1425.485962 1183.862252 1417.026245 1191.999581 1408.558838 1200.128854 C1400.332031 1208.027413 1392.078613 1215.898385 1383.877075 1223.823190 C1372.679566 1234.642892 1361.517334 1245.499093 1350.345215 1256.344918 C1338.694702 1267.654977 1327.070068 1278.991891 1315.385376 1290.266427 C1313.293945 1292.284371 1310.887207 1293.972604 1308.762085 1295.958566 C1303.371094 1300.996774 1297.338379 1303.180368 1289.675171 1303.162912 C1190.342529 1302.936227 1091.009277 1303.012765 990.676148 1303.012765 z"/></svg>